# xmcd CD database file
#
# Track frame offsets:
#	150
#	19965
#	34788
#
# Disc length: 677 seconds
#
# Revision: 0
# Processed by: cddbd v1.5.1PL0 Copyright (c) Steve Scherf et al.
# Submitted via: CDex 1.51
#
DISCID=1d02a303
DTITLE=Amber Lawrence - Self Titled
DYEAR=2005
DGENRE=Country
TTITLE0=The Lonely Road
TTITLE1=Im Sill Alright
TTITLE2=Whats She Got
EXTD=YEAR: 2005
EXTT0=
EXTT1=
EXTT2=
PLAYORDER=
